{"accessors":[{"bufferView":0,"componentType":5121,"count":111,"max":[70],"min":[0],"type":"SCALAR"},{"bufferView":1,"componentType":5126,"count":71,"max":[0.11651350557804108,-3.784855096000683e-08,0.16910354793071747],"min":[-0.11248025298118591,-4.317861623803765e-08,0.014768896624445915],"type":"VEC3"},{"bufferView":2,"componentType":5126,"count":71,"max":[1.1844294804923966e-13,1.0,3.453620323057294e-08],"min":[-1.3683421529100265e-13,0.9999999403953552,3.453565255995272e-08],"type":"VEC3"},{"bufferView":3,"componentType":5126,"count":71,"max":[1.0,0.9293477833271027],"min":[0.0,0.11480170488357544],"type":"VEC2"},{"bufferView":4,"componentType":5121,"count":156,"max":[89],"min":[0],"type":"SCALAR"},{"bufferView":5,"componentType":5126,"count":90,"max":[0.057555101811885834,0.0020378525368869305,0.04524300619959831],"min":[-0.03954949602484703,-6.259488483095765e-10,-0.035756830126047134],"type":"VEC3"},{"bufferView":6,"componentType":5126,"count":90,"max":[0.2675260603427887,0.9999999403953552,0.43933558464050293],"min":[-0.344127893447876,0.8813211917877197,-0.43933573365211487],"type":"VEC3"},{"bufferView":7,"componentType":5126,"count":90,"max":[0.894483208656311,0.9684296883642673],"min":[0.0,0.031570255756378174],"type":"VEC2"},{"bufferView":8,"componentType":5121,"count":156,"max":[89],"min":[0],"type":"SCALAR"},{"bufferView":9,"componentType":5126,"count":90,"max":[0.03954949602484703,0.0020378525368869305,0.04524300619959831],"min":[-0.057555101811885834,-6.259488483095765e-10,-0.035756830126047134],"type":"VEC3"},{"bufferView":10,"componentType":5126,"count":90,"max":[0.344127893447876,1.0,0.43933558464050293],"min":[-0.2675260603427887,0.8813211917877197,-0.43933573365211487],"type":"VEC3"},{"bufferView":11,"componentType":5126,"count":90,"max":[0.894483208656311,0.9684296883642673],"min":[0.0,0.031570255756378174],"type":"VEC2"},{"bufferView":12,"componentType":5121,"count":6,"max":[3],"min":[0],"type":"SCALAR"},{"bufferView":13,"componentType":5126,"count":4,"max":[2.036221981048584,8.909660209610593e-08,2.58309268951416],"min":[-2.036221981048584,-8.909660209610593e-08,-2.58309268951416],"type":"VEC3"},{"bufferView":14,"componentType":5126,"count":4,"max":[0.0,1.0,-3.4492224187943066e-08],"min":[0.0,1.0,-3.4492224187943066e-08],"type":"VEC3"},{"bufferView":15,"componentType":5126,"count":4,"max":[1.0,1.0],"min":[0.0,0.0],"type":"VEC2"},{"bufferView":16,"componentType":5121,"count":24,"max":[15],"min":[0],"type":"SCALAR"},{"bufferView":17,"componentType":5126,"count":16,"max":[0.6529651284217834,0.0,0.16864562034606934],"min":[-0.04512101411819458,-2.1382176029760558e-09,-0.1450573205947876],"type":"VEC3"},{"bufferView":18,"componentType":5126,"count":16,"max":[6.312455891333002e-09,1.0,-0.0],"min":[0.0,1.0,-0.0],"type":"VEC3"},{"bufferView":19,"componentType":5126,"count":16,"max":[0.9986158609390259,0.7628356516361237],"min":[-0.0019899606704711914,0.23592698574066162],"type":"VEC2"},{"bufferView":20,"componentType":5126,"count":16,"max":[0.7455454468727112,0.30125439167022705],"min":[0.5741586089134216,0.240500807762146],"type":"VEC2"},{"bufferView":21,"componentType":5121,"count":6,"max":[3],"min":[0],"type":"SCALAR"},{"bufferView":22,"componentType":5126,"count":4,"max":[2.036221981048584,8.909660209610593e-08,2.58309268951416],"min":[-2.036221981048584,-8.909660209610593e-08,-2.58309268951416],"type":"VEC3"},{"bufferView":23,"componentType":5126,"count":4,"max":[0.0,1.0,-3.4492224187943066e-08],"min":[0.0,1.0,-3.4492224187943066e-08],"type":"VEC3"},{"bufferView":24,"componentType":5126,"count":4,"max":[1.0,1.0],"min":[0.0,0.0],"type":"VEC2"},{"bufferView":25,"componentType":5121,"count":24,"max":[15],"min":[0],"type":"SCALAR"},{"bufferView":26,"componentType":5126,"count":16,"max":[0.47410187125205994,-0.001474329037591815,0.11871520429849625],"min":[-0.09962534159421921,-0.00326920161023736,-0.13661600649356842],"type":"VEC3"},{"bufferView":27,"componentType":5126,"count":16,"max":[0.010061915032565594,1.0,0.0040088254027068615],"min":[-0.006090141832828522,0.999941349029541,1.639868969505187e-05],"type":"VEC3"},{"bufferView":28,"componentType":5126,"count":16,"max":[0.9930084347724915,0.6794458627700806],"min":[0.005048960447311401,0.296209454536438],"type":"VEC2"},{"bufferView":29,"componentType":5126,"count":16,"max":[0.6284318566322327,0.242232084274292],"min":[0.5168241858482361,0.19403719902038574],"type":"VEC2"}],"asset":{"generator":"Soft8Soft Verge3D for Blender add-on","version":"2.0"},"bufferViews":[{"buffer":0,"byteLength":111,"byteOffset":0,"target":34963},{"buffer":0,"byteLength":852,"byteOffset":112,"target":34962},{"buffer":0,"byteLength":852,"byteOffset":964,"target":34962},{"buffer":0,"byteLength":568,"byteOffset":1816,"target":34962},{"buffer":0,"byteLength":156,"byteOffset":2384,"target":34963},{"buffer":0,"byteLength":1080,"byteOffset":2540,"target":34962},{"buffer":0,"byteLength":1080,"byteOffset":3620,"target":34962},{"buffer":0,"byteLength":720,"byteOffset":4700,"target":34962},{"buffer":0,"byteLength":156,"byteOffset":5420,"target":34963},{"buffer":0,"byteLength":1080,"byteOffset":5576,"target":34962},{"buffer":0,"byteLength":1080,"byteOffset":6656,"target":34962},{"buffer":0,"byteLength":720,"byteOffset":7736,"target":34962},{"buffer":0,"byteLength":6,"byteOffset":8456,"target":34963},{"buffer":0,"byteLength":48,"byteOffset":8464,"target":34962},{"buffer":0,"byteLength":48,"byteOffset":8512,"target":34962},{"buffer":0,"byteLength":32,"byteOffset":8560,"target":34962},{"buffer":0,"byteLength":24,"byteOffset":8592,"target":34963},{"buffer":0,"byteLength":192,"byteOffset":8616,"target":34962},{"buffer":0,"byteLength":192,"byteOffset":8808,"target":34962},{"buffer":0,"byteLength":128,"byteOffset":9000,"target":34962},{"buffer":0,"byteLength":128,"byteOffset":9128,"target":34962},{"buffer":0,"byteLength":6,"byteOffset":9256,"target":34963},{"buffer":0,"byteLength":48,"byteOffset":9264,"target":34962},{"buffer":0,"byteLength":48,"byteOffset":9312,"target":34962},{"buffer":0,"byteLength":32,"byteOffset":9360,"target":34962},{"buffer":0,"byteLength":24,"byteOffset":9392,"target":34963},{"buffer":0,"byteLength":192,"byteOffset":9416,"target":34962},{"buffer":0,"byteLength":192,"byteOffset":9608,"target":34962},{"buffer":0,"byteLength":128,"byteOffset":9800,"target":34962},{"buffer":0,"byteLength":128,"byteOffset":9928,"target":34962}],"buffers":[{"byteLength":10056,"uri":"mockup_chaqueta_01.bin"}],"cameras":[{"extensions":{"S8S_v3d_camera_data":{"controls":"ORBIT","enablePan":true,"moveSpeed":1.0,"orbitMaxDistance":20.0,"orbitMaxPolarAngle":3.1415927410125732,"orbitMinDistance":0.0,"orbitMinPolarAngle":0.0,"orbitTarget":[0.0,0.0,-0.0],"rotateSpeed":1.0,"viewportFitInitialAspect":0.7882882952690125,"viewportFitType":"AUTO"}},"name":"Camera","perspective":{"aspectRatio":0.7882882952690125,"yfov":0.6911112070083618,"zfar":100.0,"znear":0.10000000149011612},"type":"perspective"}],"extensions":{"S8S_v3d_data":{"lights":[{"color":[1.0,1.0,1.0],"constantAttenuation":1.0,"decay":2,"distance":25.0,"intensity":1000.0,"linearAttenuation":0.0,"name":"Punto","profile":"blender","quadraticAttenuation":0.04,"shadow":{"bias":-0.0018,"cameraFar":31.622776955095866,"cameraFov":0,"cameraNear":0.05000000074505806,"cameraOrthoBottom":-1,"cameraOrthoLeft":-1,"cameraOrthoRight":1,"cameraOrthoTop":1,"mapSize":512,"radius":1.0,"slopeScaledBias":2.5},"type":"point"},{"color":[0,0,0],"name":"Ambient_Scene","profile":"blender","type":"ambient"}]}},"extensionsUsed":["S8S_v3d_texture_data","S8S_v3d_material_data","S8S_v3d_camera_data","S8S_v3d_data","S8S_v3d_mesh_data","S8S_v3d_node_data","S8S_v3d_scene_data"],"images":[{"uri":"slr_camera_application_slr_3037.png"},{"uri":"chaqueta-01.png"},{"uri":"chaqueta-02.png"},{"uri":"payoneer-vector-logo-small.png"}],"materials":[{"extensions":{"S8S_v3d_material_data":{"nodeGraph":{"edges":[{"fromNode":0,"fromOutput":0,"toInput":0,"toNode":1}],"nodes":[{"inputs":[[0.11069707572460175,0.11069707572460175,0.1157030314207077,1.0],0.0,[1.0,0.20000000298023224,0.10000000149011612],[0.800000011920929,0.800000011920929,0.800000011920929,1.0],0.0,0.8772727251052856,0.0,0.3545454740524292,0.0,0.0,0.0,0.37727272510528564,0.0,0.029999999329447746,1.4500000476837158,0.0,0.0,[0.0038368632085621357,0.004073857329785824,0.004129620734602213,1.0],1.0,[0.0,0.0,0.0],[0.0,0.0,0.0],[0.0,0.0,0.0]],"is_active_output":false,"name":"Principled BSDF","outputs":[[0,0,0,0]],"type":"BSDF_PRINCIPLED_BL"},{"inputs":[[0,0,0,0],[0,0,0,0],[0.0,0.0,0.0]],"is_active_output":true,"name":"Material Output","outputs":[],"type":"OUTPUT_MATERIAL_BL"}]},"useCastShadows":true}},"name":"bt"},{"alphaCutoff":0.5001,"alphaMode":"MASK","extensions":{"S8S_v3d_material_data":{"nodeGraph":{"edges":[{"fromNode":1,"fromOutput":0,"toInput":0,"toNode":2},{"fromNode":2,"fromOutput":0,"toInput":0,"toNode":0},{"fromNode":1,"fromOutput":1,"toInput":18,"toNode":2}],"nodes":[{"inputs":[[0,0,0,0],[0,0,0,0],[0.0,0.0,0.0]],"is_active_output":true,"name":"Material Output","outputs":[],"type":"OUTPUT_MATERIAL_BL"},{"inputs":[[0.0,0.0,0.0]],"is_active_output":false,"name":"Imagen","outputs":[[0.0,0.0,0.0,0.0],0.0],"projection":"FLAT","projectionBlend":0.0,"texture":0,"type":"TEX_IMAGE_BL"},{"inputs":[[0.800000011920929,0.800000011920929,0.800000011920929,1.0],0.0,[1.0,0.20000000298023224,0.10000000149011612],[0.800000011920929,0.800000011920929,0.800000011920929,1.0],0.0,0.5,0.0,0.5,0.0,0.0,0.0,0.5,0.0,0.029999999329447746,1.4500000476837158,0.0,0.0,[0.7925090193748474,0.13139280676841736,0.008227200247347355,1.0],1.0,[0.0,0.0,0.0],[0.0,0.0,0.0],[0.0,0.0,0.0]],"is_active_output":false,"name":"BSDF Principista","outputs":[[0,0,0,0]],"type":"BSDF_PRINCIPLED_BL"}]},"useCastShadows":false}},"name":"m_cam"},{"extensions":{"S8S_v3d_material_data":{"nodeGraph":{"edges":[{"fromNode":1,"fromOutput":0,"toInput":0,"toNode":0},{"fromNode":2,"fromOutput":0,"toInput":0,"toNode":1},{"fromNode":2,"fromOutput":0,"toInput":17,"toNode":1}],"nodes":[{"inputs":[[0,0,0,0],[0,0,0,0],[0.0,0.0,0.0]],"is_active_output":true,"name":"Material Output","outputs":[],"type":"OUTPUT_MATERIAL_BL"},{"inputs":[[0.800000011920929,0.800000011920929,0.800000011920929,1.0],0.0,[1.0,0.20000000298023224,0.10000000149011612],[0.800000011920929,0.800000011920929,0.800000011920929,1.0],0.0,0.0,0.0,0.0,0.0,0.0,0.0,0.0,0.0,0.029999999329447746,1.4500000476837158,0.0,0.0,[0.0,0.0,0.0,1.0],1.0,[0.0,0.0,0.0],[0.0,0.0,0.0],[0.0,0.0,0.0]],"is_active_output":false,"name":"BSDF Principista","outputs":[[0,0,0,0]],"type":"BSDF_PRINCIPLED_BL"},{"inputs":[[0.0,0.0,0.0]],"is_active_output":false,"name":"Imagen","outputs":[[0.0,0.0,0.0,0.0],0.0],"projection":"FLAT","projectionBlend":0.0,"texture":1,"type":"TEX_IMAGE_BL"}]},"useCastShadows":false}},"name":"M_chaqueta_01"},{"extensions":{"S8S_v3d_material_data":{"nodeGraph":{"edges":[{"fromNode":0,"fromOutput":0,"toInput":0,"toNode":1},{"fromNode":2,"fromOutput":0,"toInput":0,"toNode":0},{"fromNode":2,"fromOutput":0,"toInput":17,"toNode":0}],"nodes":[{"inputs":[[0.800000011920929,0.800000011920929,0.800000011920929,1.0],0.0,[1.0,0.20000000298023224,0.10000000149011612],[0.800000011920929,0.800000011920929,0.800000011920929,1.0],0.0,0.0,0.0,0.0,0.0,0.0,0.0,0.0,0.0,0.029999999329447746,1.4500000476837158,0.0,0.0,[0.0,0.0,0.0,1.0],1.0,[0.0,0.0,0.0],[0.0,0.0,0.0],[0.0,0.0,0.0]],"is_active_output":false,"name":"BSDF Principista","outputs":[[0,0,0,0]],"type":"BSDF_PRINCIPLED_BL"},{"inputs":[[0,0,0,0],[0,0,0,0],[0.0,0.0,0.0]],"is_active_output":true,"name":"Material Output","outputs":[],"type":"OUTPUT_MATERIAL_BL"},{"inputs":[[0.0,0.0,0.0]],"is_active_output":false,"name":"Imagen","outputs":[[0.0,0.0,0.0,0.0],0.0],"projection":"FLAT","projectionBlend":0.0,"texture":2,"type":"TEX_IMAGE_BL"}]},"useCastShadows":false}},"name":"M_chaqueta_02"},{"extensions":{"S8S_v3d_material_data":{"nodeGraph":{"edges":[{"fromNode":2,"fromOutput":0,"toInput":0,"toNode":5},{"fromNode":5,"fromOutput":0,"toInput":1,"toNode":6},{"fromNode":7,"fromOutput":0,"toInput":2,"toNode":4},{"fromNode":7,"fromOutput":1,"toInput":0,"toNode":4},{"fromNode":1,"fromOutput":0,"toInput":0,"toNode":0},{"fromNode":7,"fromOutput":0,"toInput":2,"toNode":6},{"fromNode":6,"fromOutput":0,"toInput":17,"toNode":1},{"fromNode":4,"fromOutput":0,"toInput":19,"toNode":1},{"fromNode":3,"fromOutput":0,"toInput":0,"toNode":7},{"fromNode":6,"fromOutput":0,"toInput":0,"toNode":1},{"fromNode":7,"fromOutput":1,"toInput":0,"toNode":6}],"nodes":[{"inputs":[[0,0,0,0],[0,0,0,0],[0.0,0.0,0.0]],"is_active_output":true,"name":"Material Output","outputs":[],"type":"OUTPUT_MATERIAL_BL"},{"inputs":[[0.800000011920929,0.800000011920929,0.800000011920929,1.0],0.0,[1.0,0.20000000298023224,0.10000000149011612],[0.800000011920929,0.800000011920929,0.800000011920929,1.0],0.0,0.0,0.0,0.0,0.0,0.0,0.0,0.0,0.0,0.029999999329447746,1.4500000476837158,0.0,0.0,[0.0,0.0,0.0,1.0],1.0,[0.0,0.0,0.0],[0.0,0.0,0.0],[0.0,0.0,0.0]],"is_active_output":false,"name":"BSDF Principista","outputs":[[0,0,0,0]],"type":"BSDF_PRINCIPLED_BL"},{"inputs":[],"is_active_output":false,"name":"Mapa UV","outputs":[[0.0,0.0,0.0]],"type":"UVMAP_BL","uvLayer":"MapaUV.001"},{"inputs":[],"is_active_output":false,"name":"Mapa UV.001","outputs":[[0.0,0.0,0.0]],"type":"UVMAP_BL","uvLayer":"MapaUV"},{"inputs":[0.7249999642372131,0.09999895095825195,1.0,1.0,1.0,[0.0,0.0,0.0]],"invert":false,"is_active_output":false,"name":"Relieve","outputs":[[0.0,0.0,0.0]],"type":"BUMP_BL"},{"inputs":[[0.0,0.0,0.0]],"is_active_output":false,"name":"Imagen","outputs":[[0.0,0.0,0.0,0.0],0.0],"projection":"FLAT","projectionBlend":0.0,"texture":1,"type":"TEX_IMAGE_BL"},{"blendType":"MULTIPLY","inputs":[1.0,[0.5,0.5,0.5,1.0],[0.5,0.5,0.5,1.0]],"is_active_output":false,"name":"Mezclar","outputs":[[0.0,0.0,0.0,0.0]],"type":"MIX_RGB_BL","useClamp":false},{"inputs":[[0.0,0.0,0.0]],"is_active_output":false,"name":"Imagen.001","outputs":[[0.0,0.0,0.0,0.0],0.0],"projection":"FLAT","projectionBlend":0.0,"texture":4,"type":"TEX_IMAGE_BL"}]},"useCastShadows":true}},"name":"m_mk_01"},{"extensions":{"S8S_v3d_material_data":{"nodeGraph":{"edges":[{"fromNode":0,"fromOutput":0,"toInput":0,"toNode":1},{"fromNode":1,"fromOutput":0,"toInput":1,"toNode":4},{"fromNode":7,"fromOutput":0,"toInput":2,"toNode":6},{"fromNode":7,"fromOutput":1,"toInput":0,"toNode":6},{"fromNode":5,"fromOutput":0,"toInput":0,"toNode":3},{"fromNode":4,"fromOutput":0,"toInput":17,"toNode":5},{"fromNode":6,"fromOutput":0,"toInput":19,"toNode":5},{"fromNode":2,"fromOutput":0,"toInput":0,"toNode":7},{"fromNode":7,"fromOutput":0,"toInput":2,"toNode":4},{"fromNode":4,"fromOutput":0,"toInput":0,"toNode":5},{"fromNode":7,"fromOutput":1,"toInput":0,"toNode":4}],"nodes":[{"inputs":[],"is_active_output":false,"name":"Mapa UV","outputs":[[0.0,0.0,0.0]],"type":"UVMAP_BL","uvLayer":"MapaUV.001"},{"inputs":[[0.0,0.0,0.0]],"is_active_output":false,"name":"Imagen","outputs":[[0.0,0.0,0.0,0.0],0.0],"projection":"FLAT","projectionBlend":0.0,"texture":2,"type":"TEX_IMAGE_BL"},{"inputs":[],"is_active_output":false,"name":"Mapa UV.001","outputs":[[0.0,0.0,0.0]],"type":"UVMAP_BL","uvLayer":"MapaUV"},{"inputs":[[0,0,0,0],[0,0,0,0],[0.0,0.0,0.0]],"is_active_output":true,"name":"Material Output","outputs":[],"type":"OUTPUT_MATERIAL_BL"},{"blendType":"MULTIPLY","inputs":[1.0,[0.5,0.5,0.5,1.0],[0.5,0.5,0.5,1.0]],"is_active_output":false,"name":"Mezclar","outputs":[[0.0,0.0,0.0,0.0]],"type":"MIX_RGB_BL","useClamp":true},{"inputs":[[0.800000011920929,0.800000011920929,0.800000011920929,1.0],0.0,[1.0,0.20000000298023224,0.10000000149011612],[0.800000011920929,0.800000011920929,0.800000011920929,1.0],0.0,0.0,0.0,0.0,0.0,0.0,0.0,0.0,0.0,0.029999999329447746,1.4500000476837158,0.0,0.0,[0.0,0.0,0.0,1.0],1.0,[0.0,0.0,0.0],[0.0,0.0,0.0],[0.0,0.0,0.0]],"is_active_output":false,"name":"BSDF Principista","outputs":[[0,0,0,0]],"type":"BSDF_PRINCIPLED_BL"},{"inputs":[0.7249999642372131,0.09999895095825195,1.0,1.0,1.0,[0.0,0.0,0.0]],"invert":false,"is_active_output":false,"name":"Relieve","outputs":[[0.0,0.0,0.0]],"type":"BUMP_BL"},{"inputs":[[0.0,0.0,0.0]],"is_active_output":false,"name":"Imagen.001","outputs":[[0.0,0.0,0.0,0.0],0.0],"projection":"FLAT","projectionBlend":0.0,"texture":4,"type":"TEX_IMAGE_BL"}]},"useCastShadows":true}},"name":"m_mk_02"},{"extensions":{"S8S_v3d_material_data":{"nodeGraph":{"edges":[{"fromNode":1,"fromOutput":0,"toInput":0,"toNode":0}],"nodes":[{"inputs":[[0,0,0,0],[0,0,0,0]],"is_active_output":true,"name":"World Output","outputs":[],"type":"OUTPUT_WORLD_BL"},{"inputs":[[0.0,0.0,0.0,1.0],0.0],"is_active_output":false,"name":"Background","outputs":[[0,0,0,0]],"type":"BACKGROUND_BL"}]},"useCastShadows":true}},"name":"Verge3D_Environment_World"}],"meshes":[{"extensions":{"S8S_v3d_mesh_data":{"colorLayers":{},"uvLayers":{"MapaUV":"TEXCOORD_0"}}},"name":"cam","primitives":[{"attributes":{"NORMAL":2,"POSITION":1,"TEXCOORD_0":3},"indices":0,"material":1,"mode":4}]},{"extensions":{"S8S_v3d_mesh_data":{"colorLayers":{},"uvLayers":{"MapaUV":"TEXCOORD_0"}}},"name":"cam.001","primitives":[{"attributes":{"NORMAL":6,"POSITION":5,"TEXCOORD_0":7},"indices":4,"material":0,"mode":4}]},{"extensions":{"S8S_v3d_mesh_data":{"colorLayers":{},"uvLayers":{"MapaUV":"TEXCOORD_0"}}},"name":"cam.002","primitives":[{"attributes":{"NORMAL":10,"POSITION":9,"TEXCOORD_0":11},"indices":8,"material":0,"mode":4}]},{"extensions":{"S8S_v3d_mesh_data":{"colorLayers":{},"uvLayers":{"MapaUV":"TEXCOORD_0"}}},"name":"mockup_01","primitives":[{"attributes":{"NORMAL":14,"POSITION":13,"TEXCOORD_0":15},"indices":12,"material":2,"mode":4}]},{"extensions":{"S8S_v3d_mesh_data":{"colorLayers":{},"uvLayers":{"MapaUV":"TEXCOORD_0","MapaUV.001":"TEXCOORD_1"}}},"name":"mockup_01_logo","primitives":[{"attributes":{"NORMAL":18,"POSITION":17,"TEXCOORD_0":19,"TEXCOORD_1":20},"indices":16,"material":4,"mode":4}]},{"extensions":{"S8S_v3d_mesh_data":{"colorLayers":{},"uvLayers":{"MapaUV":"TEXCOORD_0"}}},"name":"mockup_02","primitives":[{"attributes":{"NORMAL":23,"POSITION":22,"TEXCOORD_0":24},"indices":21,"material":3,"mode":4}]},{"extensions":{"S8S_v3d_mesh_data":{"colorLayers":{},"uvLayers":{"MapaUV":"TEXCOORD_0","MapaUV.001":"TEXCOORD_1"}}},"name":"mockup_02_logo","primitives":[{"attributes":{"NORMAL":27,"POSITION":26,"TEXCOORD_0":28,"TEXCOORD_1":29},"indices":25,"material":5,"mode":4}]}],"nodes":[{"children":[5,12],"extensions":{"S8S_v3d_node_data":{"frustumCulling":false,"groupNames":["Collection"],"hidden":false,"renderOrder":0,"useShadows":false}},"mesh":3,"name":"mockup_01","rotation":[0.7071068286895752,0.0,-0.0,0.7071067094802856],"translation":[0.0,1.880000114440918,1.7054625800483336e-07]},{"children":[0],"name":"v3d_Proxy_Node_0_mockup_01","rotation":[-8.429370268459024e-08,0.0,0.0,1.0],"scale":[1.0,0.9999999403953552,0.9999999403953552],"translation":[0.0,-1.880000352859497,-7.118764400482178]},{"children":[10],"extensions":{"S8S_v3d_node_data":{"frustumCulling":false,"groupNames":["Collection"],"hidden":false,"renderOrder":0,"useShadows":false}},"mesh":5,"name":"mockup_02","rotation":[0.7071068286895752,0.0,-0.0,0.7071067094802856],"translation":[0.0,1.880000114440918,1.7054625800483336e-07]},{"children":[2],"name":"v3d_Proxy_Node_0_mockup_02","rotation":[-8.429370268459024e-08,0.0,0.0,1.0],"scale":[1.0,0.9999999403953552,0.9999999403953552],"translation":[0.0,-1.880000352859497,-7.118764400482178]},{"children":[7,14],"extensions":{"S8S_v3d_node_data":{"frustumCulling":true,"groupNames":["Collection"],"hidden":false,"renderOrder":0,"useShadows":false}},"mesh":0,"name":"cam","rotation":[0.7071068286895752,0.0,-0.0,0.7071067094802856],"translation":[0.0,-0.3804643750190735,0.03960961475968361]},{"children":[4],"name":"v3d_Proxy_Node_0_cam","rotation":[-0.7071068286895752,0.0,-0.0,0.7071067094802856],"translation":[-0.0,-3.4801615811375086e-08,1.880000114440918]},{"extensions":{"S8S_v3d_node_data":{"frustumCulling":true,"groupNames":["Collection"],"hidden":false,"renderOrder":0,"useShadows":false}},"mesh":2,"name":"bt_l","rotation":[0.7071068286895752,0.0,-0.0,0.7071067094802856],"translation":[-0.18105807900428772,-0.5446985363960266,0.03960960730910301]},{"children":[6],"name":"v3d_Proxy_Node_0_bt_l","rotation":[-0.7071068286895752,0.0,-0.0,0.7071067094802856],"scale":[1.5419573783874512,1.5419573783874512,1.5419573783874512],"translation":[0.0,-0.06107646971940994,-0.7523729801177979]},{"camera":0,"children":[1,3],"extensions":{"S8S_v3d_node_data":{"frustumCulling":true,"groupNames":["Collection"],"hidden":false,"renderOrder":0}},"name":"Camera","rotation":[8.429369557916289e-08,0.0,0.0,1.0],"scale":[1.0,0.9999998807907104,0.9999998807907104],"translation":[0.0,1.8799989223480225,7.118764877319336]},{"extensions":{"S8S_v3d_node_data":{"frustumCulling":true,"groupNames":["Collection"],"hidden":false,"renderOrder":0,"useShadows":true}},"mesh":6,"name":"mockup_02_logo","rotation":[0.7069600224494934,0.008475947193801403,0.006669782567769289,0.7071713805198669],"translation":[5.149105548858643,3.316343069076538,0.01951773837208748]},{"children":[9],"name":"v3d_Proxy_Node_0_mockup_02_logo","rotation":[-0.7071068286895752,0.0,-0.0,0.7071067094802856],"translation":[-5.09259033203125,1.3574464219345828e-07,1.880000114440918]},{"extensions":{"S8S_v3d_node_data":{"frustumCulling":true,"groupNames":["Collection"],"hidden":false,"renderOrder":0,"useShadows":true}},"mesh":4,"name":"mockup_01_logo","rotation":[0.7071068286895752,0.0,-0.0,0.7071068286895752],"translation":[0.34718087315559387,3.0748751163482666,0.01890772022306919]},{"children":[11],"name":"v3d_Proxy_Node_0_mockup_01_logo","rotation":[-0.7071068286895752,0.0,-0.0,0.7071067094802856],"translation":[-0.0,1.3574464219345828e-07,1.880000114440918]},{"extensions":{"S8S_v3d_node_data":{"frustumCulling":true,"groupNames":["Collection"],"hidden":false,"renderOrder":0,"useShadows":false}},"mesh":1,"name":"bt_r","rotation":[0.7071068286895752,0.0,-0.0,0.7071067094802856],"translation":[0.18072587251663208,-0.5446985363960266,0.03960960730910301]},{"children":[13],"name":"v3d_Proxy_Node_0_bt_r","rotation":[-0.7071068286895752,0.0,-0.0,0.7071067094802856],"scale":[1.5419573783874512,1.5419573783874512,1.5419573783874512],"translation":[0.0,-0.06107646971940994,-0.7523729801177979]},{"extensions":{"S8S_v3d_node_data":{"frustumCulling":true,"groupNames":["Collection"],"hidden":false,"light":0,"renderOrder":0}},"name":"Punto","rotation":[-0.7071068286895752,0.0,0.0,0.7071068286895752],"scale":[1.0,0.9999999403953552,0.9999999403953552],"translation":[1.7862553596496582,7.433272838592529,8.412962913513184]}],"samplers":[{}],"scene":0,"scenes":[{"extensions":{"S8S_v3d_scene_data":{"aaMethod":"AUTO","light":1,"physicallyCorrectLights":true,"postprocessing":[{"edgeGlow":0.0,"edgeStrength":3.0,"edgeThickness":1.0,"hiddenEdgeColor":[0.10000000149011612,0.10000000149011612,0.10000000149011612,1.0],"pulsePeriod":0.0,"renderHiddenEdge":true,"type":"outline","visibleEdgeColor":[0.2881777584552765,0.2881777584552765,0.2881777584552765,1.0]}],"shadowMap":{"renderReverseSided":false,"renderSingleSided":true,"type":"PCFPOISSON"},"toneMapping":{"type":"filmicBlender"},"worldMaterial":6}},"extras":{"animFrameRate":24,"coordSystem":"Z_UP_RIGHT"},"name":"Scene","nodes":[8,15]}],"textures":[{"extensions":{"S8S_v3d_texture_data":{"colorSpace":"srgb"}},"name":"slr_camera_application_slr_3037.png","sampler":0,"source":0},{"extensions":{"S8S_v3d_texture_data":{"colorSpace":"srgb"}},"name":"chaqueta-01.png","sampler":0,"source":1},{"extensions":{"S8S_v3d_texture_data":{"colorSpace":"srgb"}},"name":"chaqueta-02.png","sampler":0,"source":2},{"extensions":{"S8S_v3d_texture_data":{"colorSpace":"srgb"}},"name":"chaqueta-01.png","sampler":0,"source":1},{"extensions":{"S8S_v3d_texture_data":{"colorSpace":"srgb"}},"name":"payoneer-vector-logo-small.png","sampler":0,"source":3},{"extensions":{"S8S_v3d_texture_data":{"colorSpace":"srgb"}},"name":"chaqueta-02.png","sampler":0,"source":2},{"extensions":{"S8S_v3d_texture_data":{"colorSpace":"srgb"}},"name":"payoneer-vector-logo-small.png","sampler":0,"source":3}]}
